<svg width="95" height="88" viewBox="0 0 95 88" fill="none" xmlns="http://www.w3.org/2000/svg">
  <path d="M87.112 68.113L83.5871 66.2696L83.5786 66.2526C83.5272 66.227 83.4759 66.2099 83.4331 66.1843L83.3818 66.1587C77.1106 63.1717 70.7452 60.9273 64.32 59.3996V22.1907C64.32 20.8935 63.3019 19.8608 62.0271 19.8608H53.8394H33.1948H25.0071C23.7495 19.8608 22.7142 20.8935 22.7142 22.1907V59.5789C16.3232 61.1577 9.96642 63.4278 3.7123 66.4147L1.22263 67.9167L0.846191 75.1196C3.08775 72.6959 5.43198 71.3987 5.43198 71.3987C10.7022 68.8043 17.0932 66.2696 22.7228 64.8871V86.0263H33.1862V40.2404C33.1862 34.4799 37.926 29.7093 43.5727 29.7093C49.2279 29.7093 53.8223 34.3689 53.8223 40.1209C53.8223 40.1636 53.8052 40.2063 53.8052 40.2404H53.8223V57.5648C49.0055 57.0101 44.1716 56.8309 39.3377 57.0869L35.3594 62.8474C41.5536 62.3269 47.5853 62.3695 53.54 63.0437C53.5999 63.0437 53.6341 63.0437 53.694 63.0608C53.7367 63.0608 53.7795 63.0608 53.8309 63.0779C54.8661 63.1974 58.6476 63.6753 62.1041 64.5287L53.8309 67.3364V86.0092H64.2858V64.9639C69.9239 66.3806 75.4936 68.4544 81.0889 71.1683L83.7497 72.2777C83.7497 72.2777 86.7698 73.7712 87.4799 75.2988L87.112 68.113Z" fill="url(#paint0_linear_6517_26345)"/>
  <path fill-rule="evenodd" clip-rule="evenodd" d="M15.2604 5.07692C9.75108 5.07692 5.07692 9.8026 5.07692 15.8987V72.1013C5.07692 78.1974 9.75108 82.9231 15.2604 82.9231H72.7396C78.2389 82.9231 82.916 78.1984 82.9231 72.0984V52.566L88 52.5869V72.1042C87.99 80.7633 81.2771 88 72.7396 88H15.2604C6.71583 88 0 80.7642 0 72.1013V15.8987C0 7.23576 6.71583 0 15.2604 0H72.7396C81.2842 0 88 7.23576 88 15.8987V47.3848H82.9231V42.2474C84.596 41.4492 85.7516 39.7451 85.7516 37.7718C85.7516 35.7985 84.596 34.0945 82.9231 33.2963V15.8987C82.9231 9.8026 78.2489 5.07692 72.7396 5.07692H15.2604Z" fill="url(#paint1_linear_6517_26345)"/>
  <path fill-rule="evenodd" clip-rule="evenodd" d="M80.9181 47.6197H93.2295C94.0851 47.6197 94.7695 46.937 94.7695 46.1006V29.459C94.7695 28.6056 94.0765 27.9229 93.2295 27.9229H80.9181C75.4682 27.9229 71.0449 32.3265 71.0449 37.7713C71.0449 43.2075 75.4596 47.6197 80.9181 47.6197ZM85.7516 37.7718C85.7516 40.5102 83.5261 42.7302 80.7808 42.7302C78.0356 42.7302 75.8101 40.5102 75.8101 37.7718C75.8101 35.0334 78.0356 32.8135 80.7808 32.8135C83.5261 32.8135 85.7516 35.0334 85.7516 37.7718Z" fill="url(#paint2_linear_6517_26345)"/>
  <defs>
    <linearGradient id="paint0_linear_6517_26345" x1="0.8337" y1="52.9478" x2="87.4912" y2="52.9478" gradientUnits="userSpaceOnUse">
      <stop stop-color="#8D29C1"/>
      <stop offset="0.0858" stop-color="#8D29C1"/>
      <stop offset="0.2383" stop-color="#942BBB"/>
      <stop offset="0.4667" stop-color="#A92FAC"/>
      <stop offset="0.7413" stop-color="#CA3793"/>
      <stop offset="1" stop-color="#F03F77"/>
    </linearGradient>
    <linearGradient id="paint1_linear_6517_26345" x1="-0.0568977" y1="44.0636" x2="88.0522" y2="43.9498" gradientUnits="userSpaceOnUse">
      <stop stop-color="#8D29C1"/>
      <stop offset="0.0858" stop-color="#8D29C1"/>
      <stop offset="0.2383" stop-color="#942BBB"/>
      <stop offset="0.4667" stop-color="#A92FAC"/>
      <stop offset="0.7413" stop-color="#CA3793"/>
      <stop offset="1" stop-color="#F03F77"/>
    </linearGradient>
    <linearGradient id="paint2_linear_6517_26345" x1="83.7203" y1="12.9351" x2="82.8721" y2="43.259" gradientUnits="userSpaceOnUse">
      <stop stop-color="#8D29C1"/>
      <stop offset="0.0858" stop-color="#8D29C1"/>
      <stop offset="0.2383" stop-color="#942BBB"/>
      <stop offset="0.4667" stop-color="#A92FAC"/>
      <stop offset="0.7413" stop-color="#CA3793"/>
      <stop offset="1" stop-color="#F03F77"/>
    </linearGradient>
  </defs>
</svg>
